<svg viewBox="0 0 512 512" xmlns="http://www.w3.org/2000/svg">
  <rect width="512" height="512" fill="#141414"/>

  <!-- Arka plan dil kodları -->
  <text x="42" y="118" font-family="monospace" font-size="38" fill="#b57af7" opacity="0.22" transform="rotate(-18,42,118)">TR</text>
  <text x="390" y="72" font-family="monospace" font-size="32" fill="#d4aaff" opacity="0.18" transform="rotate(12,390,72)">DE</text>
  <text x="430" y="210" font-family="monospace" font-size="28" fill="#b57af7" opacity="0.16" transform="rotate(22,430,210)">EN</text>
  <text x="18" y="360" font-family="monospace" font-size="28" fill="#d4aaff" opacity="0.16" transform="rotate(-10,18,360)">FR</text>
  <text x="340" y="460" font-family="monospace" font-size="26" fill="#b57af7" opacity="0.14" transform="rotate(8,340,460)">NL</text>
  <text x="130" y="478" font-family="monospace" font-size="24" fill="#d4aaff" opacity="0.14" transform="rotate(-6,130,478)">AR</text>
  <text x="450" y="420" font-family="monospace" font-size="22" fill="#b57af7" opacity="0.12" transform="rotate(16,450,420)">RU</text>
  <text x="165" y="42" font-family="monospace" font-size="22" fill="#d4aaff" opacity="0.14" transform="rotate(4,165,42)">2025</text>
  <text x="370" y="310" font-family="monospace" font-size="20" fill="#b57af7" opacity="0.12" transform="rotate(-14,370,310)">IT</text>
  <text x="28" y="200" font-family="monospace" font-size="20" fill="#d4aaff" opacity="0.12" transform="rotate(8,28,200)">ES</text>

  <!-- Ana semboller -->
  <text x="90" y="230" font-family="monospace" font-size="110" fill="#d4aaff" opacity="0.55" transform="rotate(-12,90,230)">„</text>
  <text x="330" y="210" font-family="monospace" font-size="90" fill="#d4aaff" opacity="0.48" transform="rotate(8,330,210)">"</text>
  <text x="148" y="365" font-family="monospace" font-size="86" fill="#b57af7" opacity="0.72" transform="rotate(-6,148,365)">§</text>
  <text x="300" y="390" font-family="monospace" font-size="80" fill="#ffffff" opacity="0.82" transform="rotate(10,300,390)">₺</text>
  <text x="235" y="278" font-family="monospace" font-size="68" fill="#d4aaff" opacity="0.38" transform="rotate(-20,235,278)">/</text>
</svg>
